<?xml version="1.0" encoding="UTF-8"?>
<svg width="645" height="692" version="1.1" viewBox="0 0 483.75001 519.00001" xmlns="http://www.w3.org/2000/svg" xmlnsCc="http//crea:tivecommons.org/ns#" xmlnsDc="http://purl.org/dc/elements/1.1/" xmlnsRdf="http://www.w3.org/1999/02/22-rdf-syntax-ns#">
<metadata>
<rdfRDF>
<ccWork rdfAbout="">
<dcFormat>image/svg+xml</dcFormat>
<dcType rdfResource="http://purl.org/dc/dcmitype/StillImage"/>
<dcTitle/>
</ccWork>
</rdfRDF>
</metadata>
<g transform="translate(-108.13 -20.5)">
<path transform="scale(.75)" d="m198.33 29.002c-13.955 0.01881-27.347 5.5747-37.223 15.445-9.8688 9.8735-15.422 23.264-15.441 37.227v583.33c0.0188 13.955 5.5747 27.345 15.445 37.221 9.8735 9.8688 23.264 15.424 37.227 15.443h326.66c13.955-0.0188 27.35-5.575 37.225-15.445 9.8685-9.8732 15.42-23.263 15.439-37.227v-16.812l8.5059 4.9121c27.361 15.797 59.411 21.441 90.52 15.949 31.112-5.492 59.291-21.774 79.59-45.98 20.289-24.207 31.401-54.785 31.385-86.371-0.13-33.544-12.694-65.853-35.26-90.674-22.526-24.777-53.423-40.327-86.734-43.68h-88.006v-320.67c-0.01878-13.956-5.5731-27.346-15.443-37.221-9.8732-9.8685-23.266-15.424-37.229-15.443zm-6e-3 11.996h19.627l15.234 30.465 6e-3 0.01172c2.4144 4.8766 6.1492 8.9779 10.781 11.836 4.6327 2.866 9.9739 4.371 15.422 4.3535h204.53c5.4488 0.01745 10.79-1.4874 15.416-4.3496 4.6382-2.8624 8.3726-6.9633 10.787-11.84l6e-3 -0.01172 15.234-30.465h19.627c10.784 0 21.134 4.2833 28.76 11.91 7.6242 7.6262 11.908 17.974 11.908 28.758v320.67h-251.37c-46.425 4.2153-87.391 32.155-108.24 73.859-20.873 41.757-18.62 91.357 5.9512 131.04 24.565 39.686 67.964 63.823 114.64 63.758h0.016c38.228 0.05 74.662-16.24 100.11-44.77l1.6934-1.8965h123.03l1.6914 1.8809c3.3307 3.7057 6.8588 7.2253 10.572 10.539l1.8965 1.6894-4e-3 26.562c0 10.784-4.2852 21.134-11.912 28.76-7.6262 7.6248-17.974 11.91-28.758 11.91h-326.67c-10.784 0-21.134-4.2852-28.76-11.912-7.6248-7.6262-11.91-17.974-11.91-28.758v-583.33c0-10.784 4.2852-21.134 11.912-28.76 7.6262-7.6248 17.974-11.908 28.758-11.908zm33.029 0h260.61l-12.555 25.086c-2.9324 5.8723-8.9265 9.5859-15.502 9.5859h-204.49c-6.5754 0-12.571-3.7128-15.506-9.5898zm83.332 373.33h112.49v75.67c0 1.1871 0.47433 2.3317 1.3164 3.1738 0.84078 0.84074 1.9798 1.3106 3.168 1.3106h116.67c1.1871 0 2.3317-0.47238 3.1738-1.3145 0.84079-0.84085 1.3106-1.9817 1.3106-3.1699v-75.67h111.92l0.27539 0.0273c42.149 4.1399 79.159 29.717 97.932 67.682 18.772 37.964 16.629 82.904-5.6719 118.91-22.301 36.004-61.579 57.946-103.93 58.055h-0.018c-36.527 0.0436-71.152-16.28-94.363-44.486-1.1412-1.3796-2.8404-2.1797-4.627-2.1797h-128.69c-1.7865 0-3.4857 0.80006-4.627 2.1797-21.502 26.066-52.832 42.081-86.562 44.232-33.729 2.1573-66.851-9.7377-91.504-32.867-24.647-23.124-38.631-55.413-38.631-89.215 0.0656-30.373 11.327-59.637 31.643-82.207 20.309-22.569 48.234-36.848 78.42-40.098zm121.46 0h107.7v71.186h-107.7zm152.78 252.96c-1e-3 0.0364-4.9e-4 0.073-2e-3 0.10938 20.701 10.207 43.475 15.309 66.422 14.992-22.948 0.28758-45.709-4.8834-66.42-15.102zm-2e-3 0.10938c-0.0508-0.0251-0.10157-0.0531-0.15234-0.0781-0.45804 12.078-4.2112 23.727-10.879 33.623 6.7109-9.8742 10.564-21.484 11.031-33.545zm88.391 13.018c-1.0476 0.17481-2.0973 0.33884-3.1465 0.49023 1.0492-0.15169 2.0989-0.31534 3.1465-0.49023zm-5.2617 0.78515c-1.285 0.16607-2.5691 0.31411-3.8555 0.44531 1.286-0.132 2.571-0.27877 3.8555-0.44531zm-5.6582 0.6211c-1.4965 0.13366-2.9933 0.24523-4.4902 0.33203 1.4971-0.0883 2.9937-0.19722 4.4902-0.33203zm-5.5918 0.39062c-1.6853 0.0848-3.3705 0.14997-5.0547 0.17578 1.6846-0.028 3.3691-0.0892 5.0547-0.17578zm-82.945 18.777c-0.51395 0.76132-1.0474 1.512-1.5957 2.252 0.55104-0.73863 1.0783-1.4921 1.5957-2.252z" stroke-width=".933"/>
<path d="m218.75 346.64c-1.8425 0-3.3633 1.5208-3.3633 3.3633v31.637h-31.637c-1.8425 0-3.3633 1.5208-3.3633 3.3633v35c0 0.89035 0.35476 1.7493 0.98633 2.3809 0.63059 0.63056 1.4858 0.98242 2.377 0.98242h31.637v31.637c0 0.89037 0.35476 1.7493 0.98633 2.3809 0.63061 0.63057 1.4858 0.98242 2.377 0.98242h35c0.89035 0 1.7492-0.35473 2.3809-0.98633 0.63056-0.6306 0.98242-1.4858 0.98242-2.377v-31.637h31.637c0.89033 0 1.7493-0.35477 2.3809-0.98633 0.63059-0.63064 0.98242-1.4858 0.98242-2.377v-35c0-0.89033-0.35477-1.7493-0.98633-2.3809-0.63059-0.63056-1.4858-0.98242-2.377-0.98242h-31.637v-31.637c0-0.89033-0.35477-1.7493-0.98633-2.3809-0.63059-0.63056-1.4858-0.98242-2.377-0.98242zm3.3633 6.7266h28.273v31.637c0 0.89035 0.35476 1.7493 0.98633 2.3809 0.63059 0.63056 1.4858 0.98242 2.377 0.98242h31.637v28.273h-31.637c-1.8425 0-3.3633 1.5208-3.3633 3.3633v31.637h-28.273v-31.637c0-0.89035-0.35476-1.7493-0.98633-2.3809-0.63059-0.63056-1.4858-0.98242-2.377-0.98242h-31.637v-28.273h31.637c0.89033 0 1.7493-0.35478 2.3809-0.98633 0.63059-0.63064 0.98242-1.4858 0.98242-2.377z"/>
<path d="m504.75 338.25c-3.912-3.912-9.2193-6.1131-14.75-6.1126-5.532 5.3e-4 -10.844 2.2016-14.755 6.1126-3.9113 3.9113-6.1117 9.2176-6.1112 14.748 5.4e-4 5.5319 2.2016 10.844 6.1126 14.755 3.9115 3.9115 9.2192 6.1131 14.75 6.1126 5.5322-5.5e-4 10.843-2.2006 14.754-6.1112 3.9115-3.9115 6.1131-9.2192 6.1126-14.75-5.3e-4 -5.5319-2.2016-10.844-6.1126-14.755zm-4.9028 4.6155c0.36878 0.35746 0.7186 0.73641 1.051 1.1394 0.88078 1.0672 1.6115 2.2767 2.1558 3.5922 2.1909 5.2789 0.98274 11.358-3.0604 15.402-2.6501 2.6501-6.2474 4.1405-9.9989 4.1404-3.7514 3e-5 -7.344-1.491-9.9934-4.1404-4.0442-4.0442-5.2531-10.127-3.0604-15.41 2.1882-5.2874 7.3223-8.7227 13.054-8.7228 3.7479-1.4e-4 7.261 1.481 9.8525 3.9996z"/>
<path d="m554.25 387.75c-3.912-3.912-9.2193-6.1131-14.75-6.1126-5.532 5.4e-4 -10.844 2.2016-14.755 6.1126-3.9113 3.9113-6.1117 9.2176-6.1112 14.748 5.3e-4 5.5319 2.2016 10.844 6.1126 14.755 3.9115 3.9115 9.2192 6.1131 14.75 6.1126 5.5322-5.5e-4 10.843-2.2006 14.754-6.1112 3.9115-3.9115 6.1131-9.2192 6.1126-14.75-5.2e-4 -5.5319-2.2016-10.844-6.1126-14.755zm-4.9028 4.6155c0.36876 0.35744 0.71859 0.73641 1.051 1.1394 0.88078 1.0672 1.6115 2.2767 2.1559 3.5922 2.1909 5.2789 0.98273 11.358-3.0604 15.402-2.6501 2.6501-6.2474 4.1405-9.9989 4.1404-3.7514 5e-5 -7.344-1.491-9.9934-4.1404-4.0442-4.0442-5.2531-10.127-3.0604-15.41 2.1881-5.2874 7.3223-8.7228 13.054-8.7228 3.7479-1.6e-4 7.261 1.481 9.8525 3.9996z"/>
<path d="m455.25 387.75c-3.912-3.912-9.2193-6.1131-14.75-6.1126-5.532 5.3e-4 -10.844 2.2016-14.755 6.1126-3.9113 3.9113-6.1117 9.2176-6.1112 14.748 5.5e-4 5.5319 2.2016 10.844 6.1126 14.755 3.9115 3.9115 9.2192 6.1131 14.75 6.1126 5.5322-5.5e-4 10.843-2.2006 14.754-6.1112 3.9115-3.9115 6.1131-9.2192 6.1126-14.75-5.4e-4 -5.5319-2.2016-10.844-6.1126-14.755zm-4.9028 4.6155c0.36878 0.35746 0.7186 0.73642 1.051 1.1394 0.88079 1.0672 1.6115 2.2767 2.1559 3.5922 2.1909 5.2789 0.98273 11.358-3.0604 15.402-2.6501 2.6501-6.2474 4.1405-9.9989 4.1404-3.7514 3e-5 -7.344-1.491-9.9934-4.1404-4.0442-4.0442-5.2531-10.127-3.0604-15.41 2.1881-5.2874 7.3223-8.7227 13.054-8.7228 3.7479-1.3e-4 7.261 1.481 9.8525 3.9996z"/>
<path d="m504.75 437.24c-3.912-3.912-9.2193-6.1131-14.75-6.1126-5.532 5.3e-4 -10.844 2.2016-14.755 6.1126-3.9113 3.9113-6.1117 9.2176-6.1112 14.748 5.3e-4 5.5319 2.2016 10.844 6.1126 14.755 3.9115 3.9115 9.2192 6.1131 14.75 6.1126 5.5322-5.5e-4 10.843-2.2006 14.754-6.1112 3.9115-3.9115 6.1131-9.2192 6.1126-14.75-5.1e-4 -5.5319-2.2016-10.844-6.1126-14.755zm-4.9028 4.6155c0.36876 0.35744 0.71859 0.73641 1.051 1.1394 0.88078 1.0672 1.6115 2.2767 2.1558 3.5922 2.1909 5.2789 0.98274 11.358-3.0604 15.402-2.6501 2.6501-6.2474 4.1405-9.9989 4.1404-3.7514 5e-5 -7.344-1.491-9.9934-4.1404-4.0442-4.0442-5.2531-10.127-3.0604-15.41 2.1881-5.2874 7.3223-8.7228 13.054-8.7228 3.7479-1.7e-4 7.261 1.481 9.8525 3.9996z"/>
<path d="m183.75 110.39c-5.5318 0-10.842 2.1964-14.752 6.1074-3.9115 3.9122-6.1113 9.2234-6.1113 14.754 0 5.5318 2.1964 10.842 6.1074 14.752 3.9121 3.9113 9.2248 6.1113 14.756 6.1113 5.5324 0 10.842-2.1965 14.752-6.1074 3.9113-3.912 6.1113-9.2248 6.1113-14.756 0-5.5314-2.1962-10.839-6.1074-14.75-3.912-3.9113-9.2248-6.1113-14.756-6.1113zm0 6.7246c5.7194 0 10.876 3.4466 13.061 8.7324 2.1915 5.286 0.99023 11.346-3.0625 15.398-4.0535 4.0538-10.117 5.2541-15.408 3.0606-5.2819-2.1835-8.7266-7.3368-8.7266-13.055 0-7.8247 6.312-14.137 14.137-14.137z"/>
<path d="m232.89 110.39v6.7266h67.977v-6.7266z"/>
<path d="m232.89 145.39v6.7266h24.227v-6.7266z"/>
<path d="m183.75 197.89c-5.5318 0-10.842 2.1964-14.752 6.1074-3.9115 3.9122-6.1113 9.2234-6.1113 14.754 0 5.5318 2.1964 10.842 6.1074 14.752 3.9121 3.9113 9.2248 6.1113 14.756 6.1113 5.5324 0 10.842-2.1964 14.752-6.1074 3.9113-3.9121 6.1113-9.2248 6.1113-14.756 0-5.5314-2.1962-10.839-6.1074-14.75-3.9121-3.9113-9.2248-6.1113-14.756-6.1113zm0 6.7246c5.7194 0 10.876 3.4466 13.061 8.7324 2.1915 5.286 0.99025 11.346-3.0625 15.398-4.0535 4.0538-10.117 5.2541-15.408 3.0606-5.2819-2.1835-8.7266-7.3368-8.7266-13.055 0-7.8247 6.312-14.137 14.137-14.137z"/>
<path d="m232.89 197.89v6.7266h67.977v-6.7266z"/>
<path d="m232.89 232.89v6.7266h24.227v-6.7266z"/>
</g>
</svg>
