<svg xmlns="http://www.w3.org/2000/svg" viewBox="0 0 480 480"><path d="M207.853 363.618c4.652 3.439 16.871 21.792 26.718 40.222a10 10 0 0018.062-.891c7.478-18.083 17.502-36.238 21.902-39.783 86.213-16.426 148.676-91.949 148.676-179.961C423.211 82.185 341.023 0 240 0S56.789 82.185 56.789 183.204c0 43.477 15.504 85.634 43.655 118.706 27.606 32.43 65.706 54.315 107.409 61.708zM240 20c89.995 0 163.211 73.213 163.211 163.204 0 78.705-56.061 146.196-133.301 160.48-5.832 1.079-12.906 5.308-25.079 28.742a268.691 268.691 0 00-2.444 4.828 333.243 333.243 0 00-3.375-5.458c-13.623-21.55-20.566-26.667-26.777-27.715-78.483-13.448-135.447-81.106-135.447-160.876C76.789 93.213 150.005 20 240 20z"/><path d="M321.899 371.222c-5.39-1.207-10.736 2.184-11.944 7.573-1.207 5.389 2.184 10.737 7.573 11.944 38.87 8.705 56.574 22.033 56.574 30.731 0 5.959-9.235 16.04-35.264 24.837-26.124 8.83-61.047 13.693-98.337 13.693-37.302 0-72.233-4.863-98.359-13.693-26.028-8.797-35.264-18.878-35.264-24.837 0-8.013 15.827-20.592 50.576-29.275 5.358-1.339 8.616-6.768 7.277-12.126-1.339-5.358-6.772-8.613-12.126-7.277-42.385 10.592-65.727 27.88-65.727 48.679 0 12.44 8.477 30.135 48.86 43.785C163.873 474.763 201.079 480 240.501 480c39.411 0 76.608-5.237 104.741-14.746 40.383-13.65 48.86-31.345 48.86-43.785 0-21.974-25.642-39.819-72.203-50.247zM193.19 240.23a10 10 0 0014.551 10.489l35.462-18.827 35.593 18.548a10.127 10.127 0 004.65 1.132c5.519-.005 9.991-4.48 9.991-10 0-.818-.098-1.613-.283-2.374l-6.804-38.885 28.645-28.123a10.001 10.001 0 00-5.604-17.037l-39.748-5.627-17.893-35.905a10 10 0 00-8.95-5.54h-.034a10.001 10.001 0 00-8.947 5.601L216.17 149.71l-39.711 5.919a10.001 10.001 0 00-5.483 17.074l28.861 27.954-6.647 39.573zm6.246-67.805l24.878-3.708a10 10 0 007.506-5.491l11.057-22.57 11.21 22.496a10.002 10.002 0 007.548 5.441l24.888 3.523-17.936 17.608a9.997 9.997 0 00-2.844 8.859l4.332 24.759-22.294-11.618a9.998 9.998 0 00-9.31.036l-22.199 11.785 4.159-24.76a10 10 0 00-2.904-8.839l-18.091-17.521z"/><path d="M240 292.332c59.364 0 107.66-48.296 107.66-107.66S299.364 77.011 240 77.011s-107.66 48.296-107.66 107.66S180.636 292.332 240 292.332zm0-195.321c48.336 0 87.66 39.324 87.66 87.66s-39.324 87.66-87.66 87.66-87.66-39.324-87.66-87.66 39.324-87.66 87.66-87.66z"/></svg>