<svg height="91" width="91" xmlns="http://www.w3.org/2000/svg"><path d="M81.936 22.711a37.493 37.493 0 00-2.928-5.756A37.106 37.106 0 0066.715 4.771C61.559 1.625 55.957.274 50.065.083c-5.758-.193-11.289.7-16.453 3.315-6.607 3.344-11.824 8.342-15.504 14.854a37.8 37.8 0 00-2.148 4.469 11.956 11.956 0 00-7.412 6.623c-4.77.609-8.469 4.686-8.469 9.619v4.256c0 5.016 3.82 9.154 8.703 9.656a11.94 11.94 0 007.746 6.279 65.934 65.934 0 001.498 4.752c3.328 9.146 9.785 15.924 14.613 20 4.035 3.408 7.309 5.889 12.697 6.773 1.234.201 2.391.297 3.488.297 4.494 0 8.016-1.602 11.914-4.102 8.4-5.383 14.986-13.229 18.541-22.092a66.565 66.565 0 001.924-5.576c5.258-1.236 9.188-5.953 9.188-11.58V34.104c0-5.366-3.569-9.909-8.455-11.393zM35.879 7.881c4.404-2.229 9.127-2.928 14.021-2.776 5.016.164 9.791 1.268 14.197 3.958A32.12 32.12 0 0174.74 19.61a34.05 34.05 0 011.449 2.586H21.705c.246-.492.502-.984.777-1.473 3.184-5.633 7.692-9.953 13.397-12.842zM5.104 43.219v-4.256c0-1.768.994-3.291 2.443-4.088v12.432c-1.449-.797-2.443-2.321-2.443-4.088zm52.923 39.426c-4.045 2.594-7.139 3.852-11.879 3.076-4.137-.678-6.639-2.588-10.268-5.654-4.363-3.682-10.184-9.773-13.133-17.879a58.518 58.518 0 01-.887-2.654h17.85c.699 0 1.365-.289 1.84-.801l7.412-7.969 7.42 7.969a2.506 2.506 0 001.838.801h17.63a62.01 62.01 0 01-1.234 3.379c-3.169 7.901-9.061 14.907-16.589 19.732zm27.338-35.018c0 3.795-3.088 6.881-6.883 6.881H59.314l-8.512-9.143c-.951-1.021-2.729-1.021-3.68 0l-8.506 9.143H19.455a6.888 6.888 0 01-6.883-6.881V34.104a6.89 6.89 0 016.883-6.883h59.027a6.891 6.891 0 016.883 6.883v13.523z"/><path d="M67.688 32.33a2.514 2.514 0 00-3.553 0l-6.754 6.758a2.513 2.513 0 103.552 3.553l6.754-6.758a2.51 2.51 0 00.001-3.553zM75.83 32.471L62.596 45.705a2.51 2.51 0 001.775 4.289c.645 0 1.287-.246 1.777-.736l13.234-13.234a2.51 2.51 0 000-3.553 2.508 2.508 0 00-3.552 0zM30.289 32.33a2.514 2.514 0 00-3.553 0l-6.756 6.758a2.51 2.51 0 001.777 4.289c.642 0 1.285-.246 1.777-.736l6.754-6.758a2.51 2.51 0 00.001-3.553zM38.428 32.471L25.195 45.705a2.514 2.514 0 001.777 4.289c.642 0 1.285-.246 1.777-.736l13.232-13.234c.98-.982.98-2.572 0-3.553a2.509 2.509 0 00-3.553 0zM56.715 66.131c-6.977 1.623-15.125.238-15.207.223a2.512 2.512 0 00-.867 4.949c.232.041 3.752.645 8.305.645 2.758 0 5.893-.221 8.908-.922 1.352-.314 2.193-1.666 1.879-3.018s-1.665-2.194-3.018-1.877zM47.678 62.646c.402 0 .811-.098 1.189-.301 2.633-1.42 4.033-2.291 4.09-2.328a2.512 2.512 0 10-2.662-4.262c-.012.008-1.34.834-3.811 2.166a2.512 2.512 0 001.194 4.725z"/></svg>