<svg height="64" width="64" xmlns="http://www.w3.org/2000/svg"><path d="M34.4 2h-3.6C17.7 2 7.6 12.1 7.6 25c0 6.3 1.5 14.9 8.4 20.1v7.2c0 5.5 4.4 9.7 10.3 9.7h12.5c5.4 0 11.2-3.7 11.2-9.7v-7.2c5.4-4 8-10.3 8-19.1v-.5C58 12.1 47.8 2 34.4 2zM56 26c0 8.4-2.5 14.2-7.6 17.8-.2.2-.4.5-.4.8v7.7c0 4.3-4 7.1-8 7.6V54c0-.6-.4-1-1-1s-1 .4-1 1v6h-4v-6c0-.6-.4-1-1-1s-1 .4-1 1v6h-4v-6c0-.6-.4-1-1-1s-1 .4-1 1v6c-4.7-.1-8-3.3-8-7.7v-7.7c0-.3-.2-.6-.4-.8-6.6-4.7-8-12.8-8-18.8 0-11.8 9.3-21 21.2-21h3.6C46.7 4 56 13.2 56 25.5v.5z"/><path d="M30.4 25.8c0-4.9-4-8.8-8.8-8.8s-8.8 4-8.8 8.8 4 8.8 8.8 8.8 8.8-4 8.8-8.8zm-8.8 6.8c-3.8 0-6.8-3.1-6.8-6.8s3.1-6.8 6.8-6.8 6.8 3.1 6.8 6.8-3 6.8-6.8 6.8zM43.5 16.9c-4.9 0-8.8 4-8.8 8.8s4 8.8 8.8 8.8 8.8-4 8.8-8.8-4-8.8-8.8-8.8zm0 15.7c-3.8 0-6.8-3.1-6.8-6.8s3.1-6.8 6.8-6.8 6.8 3.1 6.8 6.8-3.1 6.8-6.8 6.8zM33.5 32.6c-.2-.3-.5-.5-.8-.5-.3 0-.7.2-.8.4l-6.5 9.8c-.2.3-.2.7-.1 1s.5.5.9.5l12.7.2c.4 0 .7-.2.9-.5.2-.3.2-.7 0-1l-6.3-9.9zM28 42l4.7-6.9 4.4 7L28 42z"/></svg>