<svg height="512" width="512" xmlns="http://www.w3.org/2000/svg">
  <path d="M263 366c0 3 1 5 3 7l23 23a9 9 0 0013 0l24-25 20 20 31 31a45 45 0 0044 35c12 0 23-5 32-13a45 45 0 00-22-76l-31-31-20-20 25-24a9 9 0 000-13l-24-23c-3-4-9-4-12 0l-22 22-15-19 102-74c3-2 4-4 4-7l10-114a9 9 0 00-10-10L324 65c-3 0-5 2-7 4l-61 85-61-85c-2-2-4-4-7-4L74 55a9 9 0 00-10 10l10 114c0 3 1 5 4 7l102 74-15 19-22-22c-3-4-9-4-12 0l-24 23a9 9 0 000 13l25 24-51 51a45 45 0 00-35 44 45 45 0 0045 45 45 45 0 0044-35l51-51 24 25a9 9 0 0013 0l23-23a9 9 0 000-13l-22-22 32-23 32 23-22 22-3 6zm177 65a27 27 0 01-38 0c-4-4-7-9-8-15a27 27 0 0131-31c6 1 11 4 15 8 10 10 10 28 0 38zm-34-62l-1 1h-1l-2 1-2 1-1 1-2 1a45 45 0 00-4 2v1l-2 1v1a45 45 0 00-4 3v1l-2 1v1l-1 1-1 1-1 1v1l-1 2v1l-1 1v1l-1 1v2l-1 1-13-13 28-29 14 13h-1zm-25-26l-29 29-13-13 28-29 14 13zM330 83l99-9-8 100-99 71-21-30 77-77a9 9 0 00-13-13l-75 76-23-32 63-86zM83 74l99 9 67 91 64 89 21 29-10 10-177-177a9 9 0 00-13 13l177 177-10 10-78-56-26-19-106-76-8-100zm111 196l14 10 1 1-21 21-10-10 16-22zm-75 86l28 29-13 13-1-1v-2l-1-1v-1l-1-1v-1l-1-1v-2l-1-1-1-1-1-1v-1l-2-1v-1a44 44 0 00-4-3v-1l-2-1v-1a44 44 0 00-4-2l-2-1-1-1-2-1-2-1h-1l-1-1h-1l14-13zm-28 83a27 27 0 01-27-27 27 27 0 0127-27 27 27 0 0127 31 27 27 0 01-27 23zm69-67l-29-29 14-13 28 29-13 13zm57 5l-25-25-41-41-24-24 10-11 45 45 45 45-10 11zm-6-52l-10-10 23-23 17 12-30 21zm119-4l22-22 23-23 10 11-24 24-41 41-25 25-10-11 45-45z"/>
</svg>